<svg width="131" height="60" viewBox="0 0 131 60" fill="none" xmlns="http://www.w3.org/2000/svg">
    <path d="M37.6052 37.5405H18.576C8.34951 37.5405 0 29.1909 0 18.9644C0 8.73786 8.34952 0.323625 18.6408 0.323625H37.6699C40.3884 0.323625 42.6537 2.52427 42.6537 5.30744C42.6537 8.02589 40.4531 10.2913 37.6699 10.2913H18.6408C13.8511 10.2913 9.96763 14.1748 9.96763 18.9644C9.96763 23.754 13.8511 27.6375 18.6408 27.6375H37.6699C40.3884 27.6375 42.6537 29.8382 42.6537 32.6214C42.589 35.3398 40.3884 37.5405 37.6052 37.5405ZM63.6893 0.2589H65.7605V8.47896H69.5793V10.356H63.6893V0.2589ZM71.521 0.2589H77.411V2.00647H73.5922V4.33657H76.8285V6.08414H73.5922V8.60841H77.411V10.356H71.521V0.2589ZM80.5178 7.63754C81.1003 8.41424 81.9417 8.86731 82.7832 8.86731C83.5599 8.86731 84.0777 8.41424 84.0777 7.70227C84.0777 5.88997 79.4822 6.27832 79.4822 2.91262C79.4822 1.2945 80.7767 0 82.7184 0C84.2071 0 85.4369 0.647249 86.2783 1.68285L84.7896 3.04207C84.2071 2.26537 83.5599 1.8123 82.7832 1.8123C82.0712 1.8123 81.6181 2.26537 81.6181 2.8479C81.6181 4.66019 86.2136 4.20712 86.2136 7.63754C86.2136 9.51456 84.7249 10.6796 82.8479 10.6796C81.1651 10.6796 80 10.0324 79.0939 8.99676L80.5178 7.63754ZM70.8738 20.9709L72.4919 22.2006C71.5858 23.4304 70.0971 24.2718 68.2201 24.2718C65.0485 24.2718 62.8479 21.8123 62.8479 18.8997C62.8479 15.9871 65.0485 13.5275 68.2201 13.5275C70.0324 13.5275 71.5858 14.3689 72.4919 15.5987L70.8738 16.8285C70.2913 15.9871 69.3851 15.4693 68.2201 15.4693C66.343 15.4693 64.9838 16.9579 64.9838 18.8997C64.9838 20.8414 66.343 22.3301 68.2201 22.3301C69.3851 22.3948 70.2913 21.8123 70.8738 20.9709ZM84.2071 18.9644C84.2071 21.877 82.0065 24.3366 78.8349 24.3366C75.6634 24.3366 73.4628 21.877 73.4628 18.9644C73.4628 16.0518 75.6634 13.5922 78.8349 13.5922C82.0065 13.5922 84.2071 16.0518 84.2071 18.9644ZM82.0712 18.9644C82.0712 17.0227 80.712 15.534 78.8349 15.534C76.9579 15.534 75.5987 17.0227 75.5987 18.9644C75.5987 20.9061 76.9579 22.3948 78.8349 22.3948C80.712 22.3948 82.0712 20.9061 82.0712 18.9644ZM86.2783 13.9159H89.3851C91.5858 13.9159 93.0097 15.0809 93.0097 16.9579C93.0097 18.1877 92.4272 19.0939 91.3916 19.5469L94.5631 24.0129H92.1036L89.3851 19.9353H88.3495V24.0129H86.2783V13.9159ZM88.3495 15.6634V18.1877H89.5146C90.356 18.1877 90.8738 17.7346 90.8738 16.8932C90.8738 16.1165 90.356 15.6634 89.5146 15.6634H88.3495ZM95.9871 13.9159H99.9353C103.172 13.9159 105.307 16.246 105.307 18.9644C105.307 21.6828 103.172 24.0129 99.9353 24.0129H95.9871V13.9159ZM97.9935 15.7282V22.1359H99.9353C101.812 22.1359 103.172 20.712 103.172 18.9644C103.172 17.1521 101.812 15.7929 99.9353 15.7929H97.9935V15.7282ZM107.443 13.9159H113.333V15.6634H109.515V17.9935H112.751V19.7411H109.515V22.2654H113.333V24.0129H107.443V13.9159ZM109.45 13.0097L111.068 11.068H113.204L111.327 13.0097H109.45ZM115.858 13.9159H121.748V15.6634H117.929V17.9935H121.165V19.7411H117.929V22.2654H121.748V24.0129H115.858V13.9159ZM124.854 21.2298C125.437 22.0065 126.278 22.4595 127.12 22.4595C127.961 22.4595 128.414 22.0065 128.414 21.2945C128.414 19.4822 123.819 19.8706 123.819 16.5049C123.819 14.8867 125.113 13.5922 127.055 13.5922C128.544 13.5922 129.773 14.2395 130.615 15.2751L129.126 16.6343C128.544 15.8576 127.896 15.4045 127.12 15.4045C126.408 15.4045 125.955 15.8576 125.955 16.4401C125.955 18.2524 130.55 17.7994 130.55 21.2298C130.55 23.1068 129.061 24.2718 127.184 24.2718C125.502 24.2718 124.337 23.6246 123.43 22.589L124.854 21.2298Z" fill="#C00016"/>
    <path d="M63.6889 27.508H67.6371C70.8734 27.508 73.0093 29.8381 73.0093 32.5565C73.0093 35.275 70.8734 37.6051 67.6371 37.6051H63.6889V27.508ZM65.7601 29.3203V35.7281H67.7018C69.5789 35.7281 70.9381 34.3041 70.9381 32.5565C70.9381 30.7443 69.5789 29.385 67.7018 29.385H65.7601V29.3203ZM75.1452 27.508H81.0352V29.2556H77.2164V31.5857H80.4526V33.3332H77.2164V35.8575H81.0352V37.6051H75.1452V27.508ZM87.5077 27.508H89.5788V35.7281H93.3976V37.6051H87.5077V27.508ZM98.3167 27.508H101.035L104.854 37.6051H102.653L101.682 34.9514H97.6695L96.6986 37.6051H94.4979L98.3167 27.508ZM101.035 33.2038L99.6759 29.385L98.3167 33.2038H101.035ZM63.6889 41.1002H66.7957C68.9963 41.1002 70.4203 42.2653 70.4203 44.1423C70.4203 45.3721 69.8377 46.2782 68.8021 46.7313L71.9737 51.1973H69.5141L66.7957 47.1197H65.7601V51.1973H63.6889V41.1002ZM65.7601 42.8478V45.3721H66.9251C67.7666 45.3721 68.2844 44.919 68.2844 44.0776C68.2844 43.3009 67.7666 42.8478 66.9251 42.8478H65.7601ZM73.3329 41.1002H79.2229V42.8478H75.4041V45.1779H78.6403V46.9255H75.4041V49.4498H79.2229V51.1973H73.3329V41.1002ZM75.3394 40.1941L76.9575 38.2523H79.0934L77.2164 40.1941H75.3394ZM87.7018 41.1002H89.773V47.2491C89.773 49.9028 88.2196 51.521 85.6954 51.521C83.1711 51.521 81.6177 49.9028 81.6177 47.2491V41.1002H83.6889V47.4433C83.6889 48.8025 84.4656 49.5792 85.7601 49.5792C86.9899 49.5792 87.7666 48.8025 87.7666 47.4433V41.1002H87.7018ZM93.0093 48.4142C93.5918 49.1909 94.4332 49.6439 95.2747 49.6439C96.0514 49.6439 96.5692 49.1909 96.5692 48.4789C96.5692 46.6666 91.9737 47.0549 91.9737 43.6892C91.9737 42.0711 93.2682 40.7766 95.2099 40.7766C96.6986 40.7766 97.9284 41.4239 98.7698 42.4595L97.2811 43.8187C96.6986 43.042 96.0514 42.5889 95.2747 42.5889C94.5627 42.5889 94.1096 43.042 94.1096 43.6245C94.1096 45.4368 98.7051 44.9837 98.7051 48.4142C98.7051 50.2912 97.2164 51.4562 95.3394 51.4562C93.6565 51.4562 92.4915 50.809 91.5853 49.7734L93.0093 48.4142ZM101.424 48.4142C102.006 49.1909 102.847 49.6439 103.689 49.6439C104.466 49.6439 104.983 49.1909 104.983 48.4789C104.983 46.6666 100.388 47.0549 100.388 43.6892C100.388 42.0711 101.682 40.7766 103.624 40.7766C105.113 40.7766 106.343 41.4239 107.184 42.4595L105.695 43.8187C105.113 43.042 104.466 42.5889 103.689 42.5889C102.977 42.5889 102.524 43.042 102.524 43.6245C102.524 45.4368 107.119 44.9837 107.119 48.4142C107.119 50.2912 105.631 51.4562 103.754 51.4562C102.071 51.4562 100.906 50.809 99.9996 49.7734L101.424 48.4142ZM109.32 41.1002H111.391V51.1973H109.32V41.1002ZM113.333 41.1002H121.618V42.9773H118.446V51.1973H116.375V42.9773H113.268V41.1002H113.333ZM123.559 41.1002H129.449V42.8478H125.631V45.1779H128.867V46.9255H125.631V49.4498H129.449V51.1973H123.559V41.1002ZM50.485 46.0193C54.0449 42.6536 56.2455 37.864 56.2455 32.5565C56.2455 22.2653 47.896 13.9158 37.6047 13.9158H18.5756C15.8572 13.9158 13.5918 16.1164 13.5918 18.8996C13.5918 21.618 15.7924 23.8834 18.5756 23.8834H37.6047C42.3944 23.8834 46.2779 27.7669 46.2779 32.5565C46.2779 37.3462 42.3944 41.2297 37.6047 41.2297H18.5756C15.8572 41.2297 13.5918 43.4303 13.5918 46.2135C13.5918 48.9967 15.7924 51.1973 18.5756 51.1973H37.6047C38.964 51.1973 40.2585 51.0679 41.4882 50.809L47.3135 58.1229C48.2844 59.3527 49.773 59.9999 51.197 59.9999C52.2973 59.9999 53.3976 59.6763 54.3038 58.8996C56.4397 57.2167 56.828 54.0452 55.0805 51.9093L50.485 46.0193Z" fill="#00008D"/>
</svg>
